<svg xmlns="http://www.w3.org/2000/svg" viewBox="0 0 64 64">
  <rect width="64" height="64" rx="14" fill="#0d1014"/>
  <rect x="1" y="1" width="62" height="62" rx="13" fill="none" stroke="#2b323b" stroke-width="1"/>
  <path d="M8 15 Q12 8 16 15 T24 15 T32 15 T40 15 T48 15 T56 15" fill="none" stroke="#fbbf24" stroke-width="4" stroke-linecap="round" stroke-linejoin="round"/>
  <path d="M8 31 v-6 h8 v6 h8 v-6 h8 v6 h8 v-6 h8 v6 h8" fill="none" stroke="#38bdf8" stroke-width="4" stroke-linecap="round" stroke-linejoin="round"/>
  <path d="M8 42 l5 -6 l5 6 l4 -8 l5 8 l5 -4 l5 4 l5 -8 l5 8 l4 -5 l5 5" fill="none" stroke="#f472b6" stroke-width="4" stroke-linecap="round" stroke-linejoin="round"/>
  <path d="M8 54 Q14 46 20 54 T32 54 T44 54 T56 54" fill="none" stroke="#4ade80" stroke-width="4" stroke-linecap="round" stroke-linejoin="round"/>
</svg>
