<svg xmlns="http://www.w3.org/2000/svg" viewBox="0 0 1744 1360">
  <style>
    path { fill: #0d1b2a; }
    @media (prefers-color-scheme: dark) { path { fill: #e1f2ef; } }
  </style>
  <path d="M1009.037,240.557c26.729-14.643,53.207-27.326,81.325-38.091l43.732-14.35c17.172-4.632,34.105-8.025,51.843-9.616l22.554-.23c9.68-.098,18.961,2.503,27.842,6.324,63.353,27.257,15.355,132.161-10.875,179.344-17.954,32.295-37.592,62.725-59.671,92.22l-15.553,20.777-46.929,58.015-51.26,57.721-71.934,74.045-28.115,27.107-32.116,29.994c-33.625,31.403-68.306,60.608-104.11,89.692l-79.255,60.915-82.415,56.618c-25.967,17.839-52.827,32.608-80.538,47.59-25.393,13.729-50.846,25.229-77.981,35.041-58.45,21.136-130.298,32.545-185.898.715-18.25-10.592-33.28-25.053-43.96-43.218l-1.685-2.115-7.743,38.957-.796,8.235.136,28.396c2.732,28.26,15.144,52.423,41.514,64.093,10.933,4.838,22.331,7.738,34.345,7.763h15.625s28.247-3.148,42.588-6.223c29.942-6.42,58.305-15.475,86.682-27.043,56.582-23.065,107.862-50.804,159.447-83.547,40.429-25.662,79.166-52.673,117.627-81.221l98.05-76.882,70.67-60.38,52.941-48.119,68.944-67.084c34.304-34.632,67.2-69.864,99.38-106.571,53.545-61.08,105.322-127.974,147.557-197.245l27.566-49.476c21.483-42.887,46.866-106.217,31.816-152.208-5.579-17.05-16.77-30.83-32.538-39.278-35.332-18.931-87.826-11.443-126.742-1.712-57.625,14.409-118.793,42.79-170.994,71.676-35.429,19.604-69.347,40.262-102.474,63.306-1.946,1.565-4.043,2.727-6.845,3.006h-284.295v227.391c.366,1.252-2.23,3.79-3.374,4.546-44.473,40.198-86.597,82.088-127.643,125.976l-57.793,65.168c16.861-1.297,33.159-1.67,50.539.512,34.3-41.361,70.424-80.351,108.744-117.942l30.527-28.16.066,214.641c33.643,35.922,55.456,80.184,61.632,128.893-.017.079,1.215.353,1.672.354l78.528-58.11c41.657-32.721,81.966-66.21,120.46-101.27l-37.358-.114-.01-228.886,181.516.055c24.1.007,46.693,2.284,70.2,7.301l48.54-62.734,29.155-42.868c12.607-20.062,24.228-39.812,34.698-61.065l16.501-38.8c-40.046-18.221-96.395-28.978-139.839-31.842l-31.059-2.047-47.158-1-34.004-.255,27.996-16.688Z"/>
  <path d="M626.5,1242.5h224.205s1.666-1.198.795-1.346l1-35.348v-237.83s0-19.476,0-19.476l175.904.057,23.874-.533,18.598-1.16c47.999-2.993,99.887-11.964,144.455-30.233,19.018-7.796,36.051-17.336,52.809-29.139,59.64-42.004,106.433-102.984,126.321-173.35l4.416-15.624,6.987-35.89c4.387-30.643,6.254-60.991,2.829-91.771l-2.982-26.793-9.185-44.678c-11.498-43.716-30.086-84.499-56.49-121.064l-16.413-20.812-1.505-1.735c-.219-.253-1.052.754-1.266,1.111l-11.307,18.798-48.868,73.213c-26.71,37.284-54.769,72.59-84.446,107.446-1.105,1.298-1.444,3.443-1.024,5.042,3.168,12.07,5.371,23.761,5.292,36.124l-.086,13.439c-.094,14.755-3.48,29.026-8.684,42.849-11.073,29.412-31.856,46.692-61.628,55.872-18.179,5.605-36.46,8.888-55.552,9.266l-32.439.642-24.95,24.034c-41.611,40.084-84.643,77.707-129.4,114.242l-29.958,24.455-78.6,60.242-96.89,67.052-15.276,9.817-20.536,12.683v210.397Z"/>
  <path d="M486.91,714.244c52.491,6.259,100.495,31.454,134.318,71.985,18.023,21.598,31.494,46.054,38.674,73.238l3.922,19.079.827,6.054.753,6.563.903,7.037c-.204.351.43-.75.947-1.636l-.59-10.034-.796-5.994-1.198-7.939-3.245-13.645c-8.705-36.601-30.74-73.057-57.966-98.978-35.804-34.087-78.915-52.973-128.325-56.474l-28.284.05c-59.842,4.246-112.243,32.475-148.842,79.87-17.132,22.186-28.564,47.241-35.553,74.251l-1.908,7.372-1.907,9.17-.893,6.107-1.072,11.081-.294,7.165c1.343-3.121,1.458-5.175,1.819-8.203l1.053-8.856,2.253-12.687,2.776-12.084c3.589-15.621,10.26-29.679,18.41-43.629,41.617-71.235,122.558-108.6,204.219-98.863Z"/>
</svg>
